<mxfile host="Electron" modified="2023-06-30T20:37:10.117Z" agent="Mozilla/5.0 (Windows NT 10.0; Win64; x64) AppleWebKit/537.36 (KHTML, like Gecko) draw.io/21.1.2 Chrome/106.0.5249.199 Electron/21.4.3 Safari/537.36" etag="CmmAbuy-9q9GYonyOisG" version="21.1.2" type="device">
  <diagram id="C5RBs43oDa-KdzZeNtuy" name="Page-1">
    <mxGraphModel dx="1219" dy="731" grid="1" gridSize="10" guides="1" tooltips="1" connect="1" arrows="1" fold="1" page="1" pageScale="1" pageWidth="827" pageHeight="1169" math="0" shadow="0">
      <root>
        <mxCell id="WIyWlLk6GJQsqaUBKTNV-0" />
        <mxCell id="WIyWlLk6GJQsqaUBKTNV-1" parent="WIyWlLk6GJQsqaUBKTNV-0" />
        <mxCell id="61_WRDxVaNvenf14IvHh-116" value="&lt;font face=&quot;calibri&quot; style=&quot;font-size: 11.29px;&quot;&gt;str_gpio_config, value&lt;/font&gt;" style="shape=parallelogram;perimeter=parallelogramPerimeter;whiteSpace=wrap;html=1;fixedSize=1;fillColor=#e1d5e7;strokeColor=#9673a6;" vertex="1" parent="WIyWlLk6GJQsqaUBKTNV-1">
          <mxGeometry x="80" y="130" width="140" height="50" as="geometry" />
        </mxCell>
        <mxCell id="61_WRDxVaNvenf14IvHh-118" value="&lt;font style=&quot;font-size: 11.29px;&quot; face=&quot;calibri&quot;&gt;start&lt;/font&gt;" style="ellipse;whiteSpace=wrap;html=1;fillColor=#dae8fc;strokeColor=#6c8ebf;" vertex="1" parent="WIyWlLk6GJQsqaUBKTNV-1">
          <mxGeometry x="90" y="60" width="120" height="50" as="geometry" />
        </mxCell>
        <mxCell id="61_WRDxVaNvenf14IvHh-123" value="" style="endArrow=classic;html=1;rounded=0;exitX=0.5;exitY=1;exitDx=0;exitDy=0;entryX=0.5;entryY=0;entryDx=0;entryDy=0;" edge="1" parent="WIyWlLk6GJQsqaUBKTNV-1" source="61_WRDxVaNvenf14IvHh-116" target="61_WRDxVaNvenf14IvHh-132">
          <mxGeometry width="50" height="50" relative="1" as="geometry">
            <mxPoint x="-260" y="390" as="sourcePoint" />
            <mxPoint x="149.99999999999977" y="170" as="targetPoint" />
          </mxGeometry>
        </mxCell>
        <mxCell id="61_WRDxVaNvenf14IvHh-124" value="" style="endArrow=classic;html=1;rounded=0;exitX=0.5;exitY=1;exitDx=0;exitDy=0;entryX=0.5;entryY=0;entryDx=0;entryDy=0;" edge="1" parent="WIyWlLk6GJQsqaUBKTNV-1" source="61_WRDxVaNvenf14IvHh-118" target="61_WRDxVaNvenf14IvHh-116">
          <mxGeometry width="50" height="50" relative="1" as="geometry">
            <mxPoint x="320" y="310" as="sourcePoint" />
            <mxPoint x="370" y="260" as="targetPoint" />
          </mxGeometry>
        </mxCell>
        <mxCell id="61_WRDxVaNvenf14IvHh-125" value="&lt;font face=&quot;calibri&quot;&gt;&lt;b&gt;u8 GPIO_write ( str_gpio_config_t str_gpio_config )&lt;/b&gt;&lt;/font&gt;" style="text;html=1;align=center;verticalAlign=middle;resizable=0;points=[];autosize=1;strokeColor=none;fillColor=none;" vertex="1" parent="WIyWlLk6GJQsqaUBKTNV-1">
          <mxGeometry x="241" y="80" width="280" height="30" as="geometry" />
        </mxCell>
        <mxCell id="61_WRDxVaNvenf14IvHh-129" value="&lt;div style=&quot;&quot;&gt;&lt;font style=&quot;font-size: 11.29px;&quot; face=&quot;calibri&quot;&gt;Clear GPIODATA(port) Bit&lt;/font&gt;&lt;/div&gt;" style="rounded=0;whiteSpace=wrap;html=1;fillColor=#d5e8d4;strokeColor=#82b366;" vertex="1" parent="WIyWlLk6GJQsqaUBKTNV-1">
          <mxGeometry x="246" y="220" width="120" height="60" as="geometry" />
        </mxCell>
        <mxCell id="61_WRDxVaNvenf14IvHh-130" value="" style="endArrow=classic;html=1;rounded=0;exitX=0.5;exitY=1;exitDx=0;exitDy=0;" edge="1" parent="WIyWlLk6GJQsqaUBKTNV-1" source="61_WRDxVaNvenf14IvHh-132">
          <mxGeometry width="50" height="50" relative="1" as="geometry">
            <mxPoint x="146" y="300" as="sourcePoint" />
            <mxPoint x="406" y="250" as="targetPoint" />
            <Array as="points">
              <mxPoint x="150" y="310" />
              <mxPoint x="226" y="310" />
              <mxPoint x="330" y="310" />
              <mxPoint x="406" y="310" />
            </Array>
          </mxGeometry>
        </mxCell>
        <mxCell id="61_WRDxVaNvenf14IvHh-131" value="Yes" style="rounded=0;html=1;jettySize=auto;orthogonalLoop=1;fontSize=11;endArrow=block;endFill=0;endSize=8;strokeWidth=1;shadow=0;labelBackgroundColor=none;edgeStyle=orthogonalEdgeStyle;exitX=1;exitY=0.5;exitDx=0;exitDy=0;" edge="1" parent="WIyWlLk6GJQsqaUBKTNV-1" source="61_WRDxVaNvenf14IvHh-132">
          <mxGeometry x="-0.2174" y="10" relative="1" as="geometry">
            <mxPoint as="offset" />
            <mxPoint x="246" y="250" as="targetPoint" />
          </mxGeometry>
        </mxCell>
        <mxCell id="61_WRDxVaNvenf14IvHh-132" value="&lt;font face=&quot;calibri&quot;&gt;&lt;span style=&quot;font-size: 11.29px;&quot;&gt;Value==LOW&lt;/span&gt;&lt;/font&gt;" style="rhombus;whiteSpace=wrap;html=1;shadow=0;fontFamily=Helvetica;fontSize=12;align=center;strokeWidth=1;spacing=6;spacingTop=-4;fillColor=#fff2cc;strokeColor=#d6b656;" vertex="1" parent="WIyWlLk6GJQsqaUBKTNV-1">
          <mxGeometry x="100" y="210" width="100" height="80" as="geometry" />
        </mxCell>
        <mxCell id="61_WRDxVaNvenf14IvHh-141" value="" style="edgeStyle=orthogonalEdgeStyle;rounded=0;orthogonalLoop=1;jettySize=auto;html=1;entryX=0.5;entryY=0;entryDx=0;entryDy=0;" edge="1" parent="WIyWlLk6GJQsqaUBKTNV-1" source="61_WRDxVaNvenf14IvHh-133" target="61_WRDxVaNvenf14IvHh-180">
          <mxGeometry relative="1" as="geometry">
            <mxPoint x="612.0588235294119" y="310" as="targetPoint" />
          </mxGeometry>
        </mxCell>
        <mxCell id="61_WRDxVaNvenf14IvHh-133" value="&lt;div style=&quot;&quot;&gt;&lt;font style=&quot;font-size: 11.29px;&quot; face=&quot;calibri&quot;&gt;Set GPIODATA(port) bit&lt;/font&gt;&lt;br&gt;&lt;/div&gt;" style="rounded=0;whiteSpace=wrap;html=1;fillColor=#d5e8d4;strokeColor=#82b366;" vertex="1" parent="WIyWlLk6GJQsqaUBKTNV-1">
          <mxGeometry x="552" y="220" width="120" height="60" as="geometry" />
        </mxCell>
        <mxCell id="61_WRDxVaNvenf14IvHh-134" value="Yes" style="rounded=0;html=1;jettySize=auto;orthogonalLoop=1;fontSize=11;endArrow=block;endFill=0;endSize=8;strokeWidth=1;shadow=0;labelBackgroundColor=none;edgeStyle=orthogonalEdgeStyle;exitX=1;exitY=0.5;exitDx=0;exitDy=0;" edge="1" parent="WIyWlLk6GJQsqaUBKTNV-1" source="61_WRDxVaNvenf14IvHh-135">
          <mxGeometry y="20" relative="1" as="geometry">
            <mxPoint as="offset" />
            <mxPoint x="552" y="250" as="targetPoint" />
          </mxGeometry>
        </mxCell>
        <mxCell id="61_WRDxVaNvenf14IvHh-135" value="&lt;font face=&quot;calibri&quot; style=&quot;font-size: 11.29px;&quot;&gt;Value== HIGH&lt;/font&gt;" style="rhombus;whiteSpace=wrap;html=1;shadow=0;fontFamily=Helvetica;fontSize=12;align=center;strokeWidth=1;spacing=6;spacingTop=-4;fillColor=#fff2cc;strokeColor=#d6b656;" vertex="1" parent="WIyWlLk6GJQsqaUBKTNV-1">
          <mxGeometry x="403" y="210" width="100" height="80" as="geometry" />
        </mxCell>
        <mxCell id="61_WRDxVaNvenf14IvHh-136" value="" style="endArrow=classic;html=1;rounded=0;entryX=0;entryY=0.5;entryDx=0;entryDy=0;exitX=1;exitY=0.5;exitDx=0;exitDy=0;" edge="1" parent="WIyWlLk6GJQsqaUBKTNV-1" source="61_WRDxVaNvenf14IvHh-129" target="61_WRDxVaNvenf14IvHh-135">
          <mxGeometry width="50" height="50" relative="1" as="geometry">
            <mxPoint x="306" y="290" as="sourcePoint" />
            <mxPoint x="356" y="240" as="targetPoint" />
          </mxGeometry>
        </mxCell>
        <mxCell id="61_WRDxVaNvenf14IvHh-138" value="&lt;font style=&quot;font-size: 11.29px;&quot;&gt;No&lt;/font&gt;" style="text;html=1;align=center;verticalAlign=middle;resizable=0;points=[];autosize=1;strokeColor=none;fillColor=none;" vertex="1" parent="WIyWlLk6GJQsqaUBKTNV-1">
          <mxGeometry x="254" y="280" width="40" height="30" as="geometry" />
        </mxCell>
        <mxCell id="61_WRDxVaNvenf14IvHh-146" value="&lt;font style=&quot;font-size: 11.29px;&quot;&gt;Yes&lt;/font&gt;" style="text;html=1;align=center;verticalAlign=middle;resizable=0;points=[];autosize=1;strokeColor=none;fillColor=none;" vertex="1" parent="WIyWlLk6GJQsqaUBKTNV-1">
          <mxGeometry x="363" y="310" width="40" height="30" as="geometry" />
        </mxCell>
        <mxCell id="61_WRDxVaNvenf14IvHh-180" value="&lt;font style=&quot;font-size: 11.29px;&quot; face=&quot;calibri&quot;&gt;end&lt;/font&gt;" style="ellipse;whiteSpace=wrap;html=1;fillColor=#dae8fc;strokeColor=#6c8ebf;" vertex="1" parent="WIyWlLk6GJQsqaUBKTNV-1">
          <mxGeometry x="552" y="310" width="120" height="50" as="geometry" />
        </mxCell>
      </root>
    </mxGraphModel>
  </diagram>
</mxfile>
